<svg width="91" height="91" viewBox="0 0 91 91" fill="none" xmlns="http://www.w3.org/2000/svg">
<circle cx="45.5" cy="45.5" r="45.5" fill="white"/>
<path d="M65.2695 27H25.1584C21.9937 27 19.4282 29.8355 19.4282 33.3333V58.6667C19.4282 62.1644 21.9937 65 25.1584 65H65.2695C68.4341 65 70.9996 62.1644 70.9996 58.6667V54.1428H50.6425C50.6425 54.1428 42.4996 54.1428 42.4996 46C42.4996 37.8571 50.6425 37.8571 50.6425 37.8571H70.9996V33.3333C70.9996 29.8355 68.4341 27 65.2695 27Z" fill="#417BEF"/>
<path d="M70.9996 37.8571H50.6425C46.1452 37.8571 42.4996 41.5027 42.4996 46C42.4996 50.4973 46.1452 54.1428 50.6425 54.1428H70.9996M50.6425 46C50.6425 46.0106 50.6425 46.0271 50.6425 46.0271M25.1584 27H65.2695C68.4341 27 70.9996 29.8355 70.9996 33.3333V58.6667C70.9996 62.1644 68.4341 65 65.2695 65H25.1584C21.9937 65 19.4282 62.1644 19.4282 58.6667V33.3333C19.4282 29.8355 21.9937 27 25.1584 27Z" stroke="#417BEF" stroke-width="3.17791" stroke-linecap="round" stroke-linejoin="round"/>
<path d="M43.2808 46.0791C43.2808 42.1271 46.4845 38.9233 50.4366 38.9233H73.6929V53.2349H50.4365C46.4845 53.2349 43.2808 50.0312 43.2808 46.0791V46.0791Z" fill="#FFB3B9"/>
<circle cx="49.5567" cy="46.0395" r="2.17143" fill="#417BEF"/>
</svg>
