<svg width="91" height="91" viewBox="0 0 91 91" fill="none" xmlns="http://www.w3.org/2000/svg">
<circle cx="45.5" cy="45.5" r="45.5" fill="white"/>
<path d="M53.6457 23.5207L43.1693 67.9999L38.0542 66.9275L48.5306 22.4482L53.6457 23.5207Z" fill="#FFB3B9"/>
<path d="M37.0114 53.1338L33.7376 56.9936L20.6421 47.1093C20.3352 46.8778 20.0875 46.5842 19.9173 46.2501C19.7471 45.916 19.6587 45.5501 19.6587 45.1794C19.6587 44.8087 19.7471 44.4428 19.9173 44.1087C20.0875 43.7747 20.3352 43.481 20.6421 43.2495L33.7376 33.3652L37.0114 37.225L26.4722 45.1794L37.0114 53.1338Z" fill="#417BEF"/>
<path d="M54.6904 37.225L57.9643 33.3652L71.0598 43.2495C71.3666 43.481 71.6143 43.7747 71.7846 44.1087C71.9548 44.4428 72.0432 44.8087 72.0432 45.1794C72.0432 45.5501 71.9548 45.916 71.7846 46.2501C71.6143 46.5842 71.3666 46.8778 71.0598 47.1093L57.9643 56.9936L54.6904 53.1338L65.2297 45.1794L54.6904 37.225Z" fill="#417BEF"/>
</svg>
